<svg width="32" height="33" viewBox="0 0 32 33" fill="none" xmlns="http://www.w3.org/2000/svg">
  <path
    d="M4.438 10.7814V7.06687L2.9275 7.02887V5.65137H7.212V7.12387L6.0245 7.09537V11.3989C6.0245 11.6649 5.9295 11.8897 5.7395 12.0734C5.55583 12.257 5.33417 12.3489 5.0745 12.3489H2.88V10.6864L4.438 10.7814ZM8.89476 8.29237C8.8061 8.14037 8.76176 7.97571 8.76176 7.79837V6.47787C8.76176 6.21187 8.8536 5.98704 9.03726 5.80337C9.22726 5.61971 9.4521 5.52787 9.71176 5.52787H13.5213L13.4643 7.13337L10.1393 6.89587L10.1963 7.69387L12.9513 8.84337C13.1286 8.91304 13.2711 9.03021 13.3788 9.19487C13.4864 9.35321 13.5403 9.52737 13.5403 9.71737V11.2944C13.5403 11.554 13.4453 11.7757 13.2553 11.9594C13.0716 12.1494 12.8499 12.2444 12.5903 12.2444L8.73326 12.2539L8.79026 10.7434L12.1438 10.9049L12.1913 10.1259L9.27476 8.64387C9.11643 8.56154 8.98976 8.44437 8.89476 8.29237ZM15.3352 11.9404C15.1515 11.7567 15.0597 11.535 15.0597 11.2754V6.47787C15.0597 6.21821 15.1515 5.99654 15.3352 5.81287C15.5188 5.62287 15.7437 5.52787 16.0097 5.52787H19.6672C19.9268 5.52787 20.1485 5.62287 20.3322 5.81287C20.5222 5.99654 20.6172 6.21821 20.6172 6.47787V11.2754C20.6172 11.535 20.5222 11.7567 20.3322 11.9404C20.1485 12.1304 19.9268 12.2254 19.6672 12.2254H16.0097C15.7437 12.2254 15.5188 12.1304 15.3352 11.9404ZM19.0307 6.96237L16.6367 7.03837V10.7244L19.0307 10.6864V6.96237ZM23.8475 5.53737V5.56587L27.0775 9.79337L27.0205 5.53737H28.8255V12.2539H27.1155L23.8855 7.91237L23.9425 12.2539H22.1375V5.53737H23.8475Z"
    fill="currentColor" />
  <path
    d="M15.3636 27.6515C15.7151 28.003 16.2849 28.003 16.6364 27.6515L22.364 21.924C22.7154 21.5725 22.7154 21.0026 22.364 20.6512C22.0125 20.2997 21.4426 20.2997 21.0912 20.6512L16 25.7423L10.9088 20.6512C10.5574 20.2997 9.98751 20.2997 9.63604 20.6512C9.28457 21.0026 9.28457 21.5725 9.63604 21.924L15.3636 27.6515ZM15.1 14.4844L15.1 27.0151L16.9 27.0151L16.9 14.4844L15.1 14.4844Z"
    fill="currentColor" />
  <path
    d="M6.25 27.0156V29.5156C6.25 30.0679 6.69772 30.5156 7.25 30.5156H24.75C25.3023 30.5156 25.75 30.0679 25.75 29.5156V27.0156"
    stroke="currentColor" stroke-width="2" stroke-linecap="round" />
</svg>