<svg xmlns="http://www.w3.org/2000/svg" width="32" height="32" viewBox="0 0 24 24">
  <path fill="currentColor" d="M3.5 12q0-3.616 2.664-6.058T12.5 3.5v-.692q0-.242.217-.354t.43.03l2.163 1.62q.323.242.323.646t-.323.646l-2.164 1.62q-.212.142-.429.03t-.217-.354V6Q9.86 6 7.93 7.718T6 12q0 .883.247 1.713t.73 1.556q.217.323.167.69t-.348.583l-.407.298q-.373.293-.818.227t-.711-.444q-.668-1.017-1.014-2.2Q3.5 13.241 3.5 12m8 8.5v.692q0 .243-.217.354q-.217.112-.43-.03l-2.162-1.62q-.324-.242-.324-.646t.323-.646l2.164-1.62q.212-.142.429-.03t.217.354V18q2.64 0 4.57-1.718T18 12q0-.883-.247-1.722q-.247-.84-.73-1.566q-.217-.323-.167-.69t.348-.583l.407-.298q.373-.293.818-.225t.712.442q.661 1.036 1.01 2.21T20.5 12q0 3.616-2.664 6.058T11.5 20.5"/>
</svg>