<svg width="24" height="23" viewBox="0 0 24 23" fill="none" xmlns="http://www.w3.org/2000/svg">
  <path
    d="M10.3901 6.89551C10.2468 6.80603 10.0813 6.75865 9.91241 6.75879H9.27102C9.15165 6.75879 9.03716 6.80621 8.95275 6.89062C8.86834 6.97503 8.82092 7.08951 8.82092 7.20889V15.3107C8.82092 15.43 8.86834 15.5445 8.95275 15.6289C9.03716 15.7133 9.15165 15.7608 9.27102 15.7608H9.91241C10.0813 15.7609 10.2468 15.7135 10.3901 15.6241L17.1618 11.648C17.2295 11.6083 17.2856 11.5516 17.3246 11.4835C17.3636 11.4154 17.3841 11.3383 17.3841 11.2598C17.3841 11.1813 17.3636 11.1042 17.3246 11.0361C17.2856 10.968 17.2295 10.9113 17.1618 10.8716L10.3901 6.89551Z"
    fill="currentColor" />
  <path
    d="M22.8201 13.8941L21.2859 13.5138C21.2153 13.4966 21.1409 13.5078 21.0785 13.545C21.0161 13.5821 20.9708 13.6422 20.9522 13.7124C20.4366 15.5577 19.3524 17.1936 17.854 18.3876C16.3555 19.5816 14.5188 20.2731 12.6049 20.3636C10.691 20.4542 8.79725 19.9393 7.19269 18.8922C5.58813 17.845 4.35438 16.3188 3.66674 14.5304C2.9604 12.7551 2.83932 10.8007 3.32113 8.95179C3.80294 7.10289 4.86247 5.4561 6.34539 4.2513C8.0363 2.84957 10.1764 2.10531 12.3722 2.15534C14.5679 2.20537 16.6719 3.04632 18.2972 4.52361L16.8304 5.99037C16.7885 6.03143 16.7551 6.08044 16.7323 6.13454C16.7095 6.18863 16.6977 6.24673 16.6977 6.30544C16.6972 6.36483 16.7085 6.42372 16.731 6.47872C16.7534 6.53372 16.7865 6.58374 16.8283 6.62589C16.8701 6.66805 16.9199 6.7015 16.9747 6.72433C17.0296 6.74716 17.0884 6.75892 17.1478 6.75891H22.0426C22.1172 6.75891 22.1888 6.72928 22.2415 6.67652C22.2943 6.62376 22.3239 6.55221 22.3239 6.4776V1.58278C22.3239 1.52338 22.3122 1.46458 22.2893 1.40975C22.2665 1.35492 22.233 1.30515 22.1909 1.26331C22.1487 1.22147 22.0987 1.18839 22.0437 1.16597C21.9887 1.14355 21.9298 1.13223 21.8704 1.13268C21.8117 1.13276 21.7536 1.14454 21.6995 1.16734C21.6454 1.19014 21.5964 1.2235 21.5554 1.26546L19.8112 3.00959C18.01 1.34844 15.715 0.32182 13.276 0.0862324C10.8371 -0.149355 8.38803 0.419009 6.30214 1.70469C4.21625 2.99037 2.60797 4.92283 1.72245 7.20751C0.836929 9.49219 0.722748 12.0038 1.39731 14.3594C2.07187 16.715 3.49818 18.7854 5.45881 20.255C7.41943 21.7247 9.80683 22.5129 12.2571 22.4996C14.7073 22.4863 17.086 21.6721 19.0306 20.1813C20.9751 18.6904 22.3788 16.6046 23.0277 14.2418C23.0372 14.2053 23.0393 14.1674 23.0339 14.1301C23.0286 14.0928 23.0159 14.0569 22.9966 14.0246C22.9772 13.9923 22.9517 13.9641 22.9214 13.9417C22.8911 13.9193 22.8567 13.9031 22.8201 13.8941Z"
    fill="currentColor" />
</svg>