<svg width="120" height="135" viewBox="0 0 120 135" fill="none" xmlns="http://www.w3.org/2000/svg"
  class="page-spy-logo">
  <path
    d="M0.766907 56.8979L53.2667 4.39897L53.901 3.76465C58.8949 -1.22924 66.9916 -1.22924 71.9855 3.76465C76.9347 8.71391 76.9854 16.7225 72.0992 21.734L27.0319 67.9568V72.1039L29.7966 74.8686H33.9437L76.137 32.706L101.68 33.3977L119.65 51.3684V76.251L65.2539 130.648C60.2914 135.61 52.2456 135.61 47.2831 130.648C42.3207 125.685 42.3207 117.639 47.2831 112.677L93.3854 66.5744V62.4273L90.6207 59.6626H86.4736L45.0026 101.134H17.3553L0.766907 84.5451L0.766907 56.8979Z"
    fill="#fff" />
</svg>